<svg width="30" height="30" viewBox="0 0 30 30" fill="none" xmlns="http://www.w3.org/2000/svg">
<g id="np_star_6186368_000000 4">
<path id="Vector" d="M16.8324 5.10253L18.9814 9.42997C19.214 9.92354 19.6781 10.2719 20.2306 10.3309L24.9938 11.0571C26.3304 11.2602 26.8819 12.8873 25.9231 13.8461L22.467 17.2149C22.0892 17.5928 21.8861 18.1442 22.0018 18.6673L22.8154 23.4304C23.048 24.7671 21.624 25.7837 20.4337 25.1438L16.1641 22.9074C15.6705 22.6464 15.0896 22.6464 14.6539 22.9074L10.3843 25.1438C9.16452 25.7826 7.77002 24.7376 8.00263 23.4304L8.81618 18.6377C8.90355 18.0862 8.72882 17.5632 8.35097 17.1853L4.86531 13.8153C3.87818 12.8565 4.42961 11.201 5.79459 11.0263L10.5874 10.3296C11.1388 10.2423 11.604 9.92342 11.8366 9.42869L13.9856 5.10126C14.5087 3.88264 16.2514 3.88279 16.8324 5.10253Z" fill="#FFD600"/>
</g>
</svg>
